<svg width="82" height="93" viewBox="0 0 82 93" fill="none" xmlns="http://www.w3.org/2000/svg">
  <g clip-path="url(#clip0)">
    <g filter="url(#filter0_d)">
      <path d="M18.323 48.2477C17.032 47.4702 17.032 45.599 18.323 44.8215L78.968 8.28357C80.301 7.48046 82 8.44045 82 9.99667L82 83.0725C82 84.6287 80.301 85.5887 78.968 84.7856L18.323 48.2477Z" fill="url(#paint0_linear)"/>
    </g>
    <path d="M63.677 44.8207C64.968 45.5982 64.968 47.4694 63.677 48.2469L3.03198 84.7848C1.69925 85.5879 0 84.6279 0 83.0717L0 9.99584C0 8.43962 1.69925 7.47964 3.03198 8.28275L63.677 44.8207Z" fill="url(#paint1_linear)"/>
  </g>
  <defs>
    <filter id="filter0_d" x="13.355" y="5.99356" width="68.6449" height="81.0821" filterUnits="userSpaceOnUse" color-interpolation-filters="sRGB">
      <feFlood flood-opacity="0" result="BackgroundImageFix"/>
      <feColorMatrix in="SourceAlpha" type="matrix" values="0 0 0 0 0 0 0 0 0 0 0 0 0 0 0 0 0 0 127 0" result="hardAlpha"/>
      <feOffset dx="-2"/>
      <feGaussianBlur stdDeviation="1"/>
      <feComposite in2="hardAlpha" operator="out"/>
      <feColorMatrix type="matrix" values="0 0 0 0 0 0 0 0 0 0 0 0 0 0 0 0 0 0 0.12 0"/>
      <feBlend mode="normal" in2="BackgroundImageFix" result="effect1_dropShadow"/>
      <feBlend mode="normal" in="SourceGraphic" in2="effect1_dropShadow" result="shape"/>
    </filter>
    <linearGradient id="paint0_linear" x1="41.908" y1="69.9121" x2="104.488" y2="8.0151" gradientUnits="userSpaceOnUse">
      <stop stop-color="#9C27B0"/>
      <stop offset="1" stop-color="#0004FF"/>
    </linearGradient>
    <linearGradient id="paint1_linear" x1="40.092" y1="23.1563" x2="-22.4884" y2="85.0533" gradientUnits="userSpaceOnUse">
      <stop stop-color="#9C27B0"/>
      <stop offset="1" stop-color="#F429A3"/>
    </linearGradient>
    <clipPath id="clip0">
      <rect width="82" height="93" fill="white"/>
    </clipPath>
  </defs>
</svg>
