<svg width="32" height="32" viewBox="0 0 32 32" fill="none" xmlns="http://www.w3.org/2000/svg">
<path d="M15.7025 9.62646C16.9097 9.62646 19.2088 8.00058 21.5785 8.24365C22.5702 8.2719 25.3911 8.62611 27.2113 11.2134C27.0631 11.2998 23.8504 13.1415 23.8852 16.9263C23.9249 21.4601 27.9495 22.9612 28.0053 22.98C27.9812 23.0857 27.3736 25.145 25.8617 27.2358C24.5993 29.0762 23.2769 30.8756 21.1762 30.9087C19.1355 30.9545 18.4484 29.7379 16.1078 29.7378C13.7455 29.7378 13.0137 30.8759 11.0561 30.9546C9.05516 31.0262 7.52644 28.9896 6.21817 27.1655C3.60266 23.4409 1.56645 16.6689 4.29629 12.061C5.61915 9.80121 8.03176 8.3459 10.6098 8.30713C12.6129 8.26734 14.4715 9.62631 15.7025 9.62646ZM21.6029 0.990723C21.8029 2.76318 21.0826 4.50964 20.0297 5.79346C18.931 7.05726 17.1732 8.02446 15.4613 7.8999C15.2372 6.19446 16.1047 4.38039 17.0756 3.27393C18.173 2.01836 20.079 1.05662 21.6029 0.990723Z" fill="white"/>
</svg>
