<svg width="32" height="32" viewBox="0 0 32 32" fill="none" xmlns="http://www.w3.org/2000/svg">
<g clip-path="url(#clip0_1322_38505)">
<path d="M22.8071 21.8712L5.20752 31.6212C4.17149 32.1939 3.26043 32.1254 2.70166 31.5529L17.7183 16.9103L22.8071 21.8712ZM16.814 15.8341V16.1769L1.88525 30.7277L1.79736 30.6486C1.44352 30.2873 1.23877 29.7244 1.23877 28.9962V3.02064C1.23877 2.29241 1.44349 1.72949 1.79736 1.3683L1.88525 1.28334L16.814 15.8341ZM23.7095 11.0451L29.603 14.3156C31.2851 15.2434 31.2851 16.7705 29.603 17.7042L23.7095 20.9679L23.5923 21.0314L18.6216 16.1788V15.8351L23.5981 10.9826L23.7095 11.0451ZM2.70166 0.465956C3.26044 -0.106493 4.17157 -0.174948 5.20752 0.391737L22.8071 10.1417L17.7183 15.1027L2.70166 0.465956Z" fill="white"/>
</g>
<defs>
<clipPath id="clip0_1322_38505">
<rect width="32" height="32" fill="white"/>
</clipPath>
</defs>
</svg>
