<svg width="169" height="32" viewBox="0 0 169 32" fill="none" xmlns="http://www.w3.org/2000/svg">
<g clip-path="url(#clip0_1215_31964)">
<path d="M23.1859 9.12193H15.2722V29.1647H7.87652V9.12193H0V2.83536H23.1859V9.12193Z" fill="white"/>
<path d="M33.7702 29.1647H26.3745V2.83536H33.7702V29.1647Z" fill="white"/>
<g clip-path="url(#clip1_1215_31964)">
<g filter="url(#filter0_d_1215_31964)">
<path d="M44.0306 16.5872C43.5888 16.3209 43.5888 15.6803 44.0306 15.414L64.7954 2.90347C65.2518 2.62849 65.8336 2.95719 65.8336 3.49004L65.8336 28.5112C65.8336 29.044 65.2518 29.3727 64.7954 29.0977L44.0306 16.5872Z" fill="url(#paint0_linear_1215_31964)"/>
</g>
<path d="M59.5592 15.4133C60.0011 15.6795 60.0011 16.3202 59.5592 16.5865L38.7944 29.097C38.338 29.372 37.7562 29.0433 37.7562 28.5104L37.7562 3.48932C37.7562 2.95647 38.338 2.62778 38.7944 2.90276L59.5592 15.4133Z" fill="url(#paint1_linear_1215_31964)"/>
</g>
<path d="M89.7143 8.9738H77.215V12.7459H88.5677V18.7365H77.215V23.0259H89.936V29.1647H69.8193V2.83536H89.7143V8.9738Z" fill="white"/>
<path d="M107.399 2.39163C109.445 2.39165 111.318 2.712 113.019 3.35296C114.72 3.99393 116.2 4.88158 117.457 6.01558L112.539 10.9707C111.947 10.3297 111.22 9.82441 110.357 9.45462C109.519 9.08485 108.533 8.89991 107.399 8.8999C106.413 8.8999 105.5 9.06026 104.662 9.38073C103.849 9.7012 103.146 10.1695 102.554 10.7858C101.963 11.4021 101.494 12.154 101.149 13.0415C100.828 13.9043 100.668 14.8782 100.668 15.9629C100.668 17.0722 100.828 18.0707 101.149 18.9582C101.494 19.8211 101.963 20.5608 102.554 21.1771C103.146 21.7934 103.849 22.2741 104.662 22.6193C105.5 22.9397 106.413 23.1001 107.399 23.1001C108.508 23.1001 109.494 22.9273 110.357 22.5822C111.244 22.237 112.009 21.7317 112.65 21.0661L117.605 26.0212C116.298 27.1552 114.831 28.0429 113.204 28.6838C111.577 29.3001 109.666 29.6084 107.473 29.6084C105.451 29.6084 103.565 29.2756 101.815 28.6099C100.089 27.9197 98.5727 26.9582 97.2661 25.7256C95.9595 24.493 94.9364 23.0505 94.1968 21.3988C93.4819 19.7225 93.1245 17.9104 93.1245 15.9629C93.1245 13.9907 93.4819 12.1787 94.1968 10.527C94.9364 8.87526 95.9474 7.44557 97.2293 6.23761C98.5359 5.02962 100.052 4.09281 101.778 3.42719C103.503 2.73694 105.377 2.39163 107.399 2.39163Z" fill="white"/>
<path d="M128.19 18.9213C128.19 19.7594 128.375 20.4743 128.744 21.0659C129.114 21.6576 129.607 22.1137 130.224 22.4342C130.865 22.73 131.567 22.8779 132.332 22.8779C133.12 22.8779 133.811 22.73 134.402 22.4342C135.019 22.1137 135.499 21.6701 135.844 21.1031C136.19 20.5114 136.362 19.7965 136.362 18.9584V2.61349H143.795V18.2926C143.795 20.4621 143.314 22.3849 142.353 24.0613C141.416 25.713 140.085 27.0197 138.359 27.9811C136.658 28.9179 134.649 29.3865 132.332 29.3865C130.014 29.3865 127.993 28.9179 126.267 27.9811C124.541 27.0197 123.198 25.7009 122.236 24.0245C121.275 22.3481 120.794 20.425 120.794 18.2555V2.61349H128.19V18.9213Z" fill="white"/>
<path fill-rule="evenodd" clip-rule="evenodd" d="M159.186 2.83536C160.887 2.83536 162.416 3.18064 163.772 3.87092C165.152 4.53653 166.237 5.51013 167.026 6.79201C167.84 8.0493 168.246 9.57797 168.246 11.3776C168.246 13.1526 167.84 14.681 167.026 15.9629C166.237 17.2448 165.153 18.2312 163.772 18.9214C162.416 19.5871 160.887 19.9199 159.186 19.9199H154.379V29.1647H146.983V2.83536H159.186ZM154.379 14.5946H157.744C158.311 14.5946 158.829 14.4838 159.297 14.2619C159.79 14.0154 160.185 13.658 160.481 13.1896C160.777 12.6966 160.924 12.0925 160.924 11.3776C160.924 10.6627 160.777 10.0708 160.481 9.60243C160.185 9.10942 159.79 8.75195 159.297 8.53009C158.829 8.28358 158.311 8.16027 157.744 8.16027H154.379V14.5946Z" fill="white"/>
</g>
<defs>
<filter id="filter0_d_1215_31964" x="42.3296" y="2.11937" width="23.5039" height="27.7625" filterUnits="userSpaceOnUse" color-interpolation-filters="sRGB">
<feFlood flood-opacity="0" result="BackgroundImageFix"/>
<feColorMatrix in="SourceAlpha" type="matrix" values="0 0 0 0 0 0 0 0 0 0 0 0 0 0 0 0 0 0 127 0" result="hardAlpha"/>
<feOffset dx="-0.684799"/>
<feGaussianBlur stdDeviation="0.342399"/>
<feComposite in2="hardAlpha" operator="out"/>
<feColorMatrix type="matrix" values="0 0 0 0 0 0 0 0 0 0 0 0 0 0 0 0 0 0 0.12 0"/>
<feBlend mode="normal" in2="BackgroundImageFix" result="effect1_dropShadow_1215_31964"/>
<feBlend mode="normal" in="SourceGraphic" in2="effect1_dropShadow_1215_31964" result="shape"/>
</filter>
<linearGradient id="paint0_linear_1215_31964" x1="52.1063" y1="24.005" x2="73.5337" y2="2.81155" gradientUnits="userSpaceOnUse">
<stop stop-color="#9C27B0"/>
<stop offset="0.0858945" stop-color="#8F24B7"/>
<stop offset="0.678566" stop-color="#320FE6"/>
<stop offset="1" stop-color="#0004FF"/>
</linearGradient>
<linearGradient id="paint1_linear_1215_31964" x1="51.4835" y1="7.99545" x2="30.0562" y2="29.1889" gradientUnits="userSpaceOnUse">
<stop stop-color="#9C27B0"/>
<stop offset="0.0733174" stop-color="#A227AF"/>
<stop offset="0.674952" stop-color="#D828A7"/>
<stop offset="1" stop-color="#F429A3"/>
</linearGradient>
<clipPath id="clip0_1215_31964">
<rect width="168.246" height="32" fill="white"/>
</clipPath>
<clipPath id="clip1_1215_31964">
<rect width="29.6711" height="26.3931" fill="white" transform="translate(36.959 2.80347)"/>
</clipPath>
</defs>
</svg>
